<mxfile host="65bd71144e">
    <diagram id="RMB8drSt1ifAS0e_Abwc" name="面试流程">
        <mxGraphModel dx="918" dy="1150" grid="1" gridSize="10" guides="1" tooltips="1" connect="1" arrows="1" fold="1" page="1" pageScale="1" pageWidth="827" pageHeight="1169" math="0" shadow="0">
            <root>
                <mxCell id="0"/>
                <mxCell id="1" parent="0"/>
                <object label="" id="2">
                    <mxCell style="shape=umlActor;verticalLabelPosition=bottom;verticalAlign=top;html=1;outlineConnect=0;" vertex="1" parent="1">
                        <mxGeometry x="110" y="90" width="30" height="60" as="geometry"/>
                    </mxCell>
                </object>
                <mxCell id="3" value="" style="shape=umlActor;verticalLabelPosition=bottom;verticalAlign=top;html=1;outlineConnect=0;" vertex="1" parent="1">
                    <mxGeometry x="300" y="90" width="30" height="60" as="geometry"/>
                </mxCell>
                <mxCell id="4" value="" style="shape=umlActor;verticalLabelPosition=bottom;verticalAlign=top;html=1;outlineConnect=0;" vertex="1" parent="1">
                    <mxGeometry x="480" y="90" width="30" height="60" as="geometry"/>
                </mxCell>
                <mxCell id="8" value="应聘者" style="text;html=1;strokeColor=none;fillColor=none;align=center;verticalAlign=middle;whiteSpace=wrap;rounded=0;fontFamily=Verdana;fontSize=11;fontColor=#EEEFF0;" vertex="1" parent="1">
                    <mxGeometry x="95" y="150" width="60" height="30" as="geometry"/>
                </mxCell>
                <mxCell id="10" value="HR" style="text;html=1;strokeColor=none;fillColor=none;align=center;verticalAlign=middle;whiteSpace=wrap;rounded=0;fontFamily=Verdana;fontSize=11;fontColor=#EEEFF0;" vertex="1" parent="1">
                    <mxGeometry x="285" y="150" width="60" height="30" as="geometry"/>
                </mxCell>
                <mxCell id="11" value="面试者" style="text;html=1;strokeColor=none;fillColor=none;align=center;verticalAlign=middle;whiteSpace=wrap;rounded=0;fontFamily=Verdana;fontSize=11;fontColor=#EEEFF0;" vertex="1" parent="1">
                    <mxGeometry x="465" y="150" width="60" height="30" as="geometry"/>
                </mxCell>
                <mxCell id="15" style="edgeStyle=none;html=1;exitX=0.5;exitY=1;exitDx=0;exitDy=0;entryX=0.5;entryY=0;entryDx=0;entryDy=0;fontFamily=Verdana;fontSize=11;fontColor=#EEEFF0;" edge="1" parent="1" source="12" target="13">
                    <mxGeometry relative="1" as="geometry"/>
                </mxCell>
                <mxCell id="12" value="开始" style="rounded=1;whiteSpace=wrap;html=1;fontFamily=Verdana;fontSize=11;fontColor=#EEEFF0;" vertex="1" parent="1">
                    <mxGeometry x="255" y="200" width="115" height="30" as="geometry"/>
                </mxCell>
                <mxCell id="28" style="edgeStyle=none;html=1;exitX=0.5;exitY=1;exitDx=0;exitDy=0;entryX=0.5;entryY=0;entryDx=0;entryDy=0;fontFamily=Verdana;fontSize=11;fontColor=#EEEFF0;" edge="1" parent="1" source="13" target="17">
                    <mxGeometry relative="1" as="geometry"/>
                </mxCell>
                <mxCell id="13" value="筛选简历" style="rounded=0;whiteSpace=wrap;html=1;fontFamily=Verdana;fontSize=11;fontColor=#EEEFF0;" vertex="1" parent="1">
                    <mxGeometry x="260" y="270" width="105" height="30" as="geometry"/>
                </mxCell>
                <mxCell id="29" style="edgeStyle=none;html=1;exitX=0.5;exitY=1;exitDx=0;exitDy=0;entryX=0.5;entryY=0;entryDx=0;entryDy=0;fontFamily=Verdana;fontSize=11;fontColor=#EEEFF0;" edge="1" parent="1" source="17" target="18">
                    <mxGeometry relative="1" as="geometry"/>
                </mxCell>
                <mxCell id="50" value="" style="edgeStyle=none;html=1;fontFamily=Verdana;fontSize=11;fontColor=#EEEFF0;" edge="1" parent="1" source="17" target="49">
                    <mxGeometry relative="1" as="geometry"/>
                </mxCell>
                <mxCell id="17" value="简历是否通过" style="rhombus;whiteSpace=wrap;html=1;fontFamily=Verdana;fontSize=11;fontColor=#EEEFF0;" vertex="1" parent="1">
                    <mxGeometry x="255" y="350" width="115" height="60" as="geometry"/>
                </mxCell>
                <mxCell id="30" style="edgeStyle=none;html=1;exitX=0.5;exitY=1;exitDx=0;exitDy=0;entryX=0.5;entryY=0;entryDx=0;entryDy=0;fontFamily=Verdana;fontSize=11;fontColor=#EEEFF0;" edge="1" parent="1" source="18" target="19">
                    <mxGeometry relative="1" as="geometry"/>
                </mxCell>
                <mxCell id="44" value="" style="edgeStyle=none;html=1;fontFamily=Verdana;fontSize=11;fontColor=#EEEFF0;" edge="1" parent="1" source="18" target="26">
                    <mxGeometry relative="1" as="geometry"/>
                </mxCell>
                <mxCell id="18" value="和应聘者沟通（意向收集）" style="rounded=0;whiteSpace=wrap;html=1;fontFamily=Verdana;fontSize=11;fontColor=#EEEFF0;" vertex="1" parent="1">
                    <mxGeometry x="266.25" y="460" width="95" height="50" as="geometry"/>
                </mxCell>
                <mxCell id="31" value="" style="edgeStyle=none;html=1;fontFamily=Verdana;fontSize=11;fontColor=#EEEFF0;" edge="1" parent="1" source="19" target="20">
                    <mxGeometry relative="1" as="geometry"/>
                </mxCell>
                <mxCell id="19" value="安排面试" style="rounded=0;whiteSpace=wrap;html=1;fontFamily=Verdana;fontSize=11;fontColor=#EEEFF0;" vertex="1" parent="1">
                    <mxGeometry x="256.25" y="560" width="115" height="40" as="geometry"/>
                </mxCell>
                <mxCell id="20" value="此轮面试是否通过" style="rhombus;whiteSpace=wrap;html=1;fontFamily=Verdana;fontSize=11;fontColor=#EEEFF0;" vertex="1" parent="1">
                    <mxGeometry x="437.5" y="540" width="122.5" height="80" as="geometry"/>
                </mxCell>
                <mxCell id="37" style="edgeStyle=none;html=1;exitX=0.5;exitY=1;exitDx=0;exitDy=0;entryX=0.5;entryY=0;entryDx=0;entryDy=0;fontFamily=Verdana;fontSize=11;fontColor=#EEEFF0;startArrow=none;" edge="1" parent="1" source="45" target="22">
                    <mxGeometry relative="1" as="geometry"/>
                </mxCell>
                <mxCell id="21" value="是否结束面试" style="rhombus;whiteSpace=wrap;html=1;fontFamily=Verdana;fontSize=11;fontColor=#EEEFF0;" vertex="1" parent="1">
                    <mxGeometry x="260" y="650" width="120" height="80" as="geometry"/>
                </mxCell>
                <mxCell id="38" style="edgeStyle=none;html=1;exitX=0.5;exitY=1;exitDx=0;exitDy=0;entryX=0.5;entryY=0;entryDx=0;entryDy=0;fontFamily=Verdana;fontSize=11;fontColor=#EEEFF0;" edge="1" parent="1" source="22" target="23">
                    <mxGeometry relative="1" as="geometry"/>
                </mxCell>
                <mxCell id="22" value="是否录用" style="rhombus;whiteSpace=wrap;html=1;fontFamily=Verdana;fontSize=11;fontColor=#EEEFF0;" vertex="1" parent="1">
                    <mxGeometry x="263.75" y="780" width="112.5" height="80" as="geometry"/>
                </mxCell>
                <mxCell id="42" style="edgeStyle=none;html=1;exitX=0.5;exitY=1;exitDx=0;exitDy=0;entryX=0.5;entryY=0;entryDx=0;entryDy=0;fontFamily=Verdana;fontSize=11;fontColor=#EEEFF0;" edge="1" parent="1" source="23" target="24">
                    <mxGeometry relative="1" as="geometry"/>
                </mxCell>
                <mxCell id="43" style="edgeStyle=none;html=1;exitX=0;exitY=0.5;exitDx=0;exitDy=0;fontFamily=Verdana;fontSize=11;fontColor=#EEEFF0;" edge="1" parent="1" source="23">
                    <mxGeometry relative="1" as="geometry">
                        <mxPoint x="180" y="930" as="targetPoint"/>
                    </mxGeometry>
                </mxCell>
                <mxCell id="23" value="发放offer" style="rounded=0;whiteSpace=wrap;html=1;fontFamily=Verdana;fontSize=11;fontColor=#EEEFF0;" vertex="1" parent="1">
                    <mxGeometry x="263.75" y="910" width="112.5" height="40" as="geometry"/>
                </mxCell>
                <mxCell id="24" value="结束" style="rounded=1;whiteSpace=wrap;html=1;fontFamily=Verdana;fontSize=11;fontColor=#EEEFF0;" vertex="1" parent="1">
                    <mxGeometry x="270.63" y="1010" width="98.75" height="30" as="geometry"/>
                </mxCell>
                <mxCell id="25" value="收到offer邮件" style="rounded=0;whiteSpace=wrap;html=1;fontFamily=Verdana;fontSize=11;fontColor=#EEEFF0;" vertex="1" parent="1">
                    <mxGeometry x="72.5" y="910" width="105" height="40" as="geometry"/>
                </mxCell>
                <mxCell id="26" value="获得简历通过邮件" style="rounded=0;whiteSpace=wrap;html=1;fontFamily=Verdana;fontSize=11;fontColor=#EEEFF0;" vertex="1" parent="1">
                    <mxGeometry x="70" y="465" width="107.5" height="40" as="geometry"/>
                </mxCell>
                <mxCell id="34" value="" style="edgeStyle=segmentEdgeStyle;endArrow=classic;html=1;fontFamily=Verdana;fontSize=11;fontColor=#EEEFF0;exitX=0.5;exitY=1;exitDx=0;exitDy=0;entryX=1;entryY=0.5;entryDx=0;entryDy=0;" edge="1" parent="1" source="20" target="21">
                    <mxGeometry width="50" height="50" relative="1" as="geometry">
                        <mxPoint x="500" y="630" as="sourcePoint"/>
                        <mxPoint x="400" y="690" as="targetPoint"/>
                        <Array as="points">
                            <mxPoint x="500" y="620"/>
                            <mxPoint x="500" y="690"/>
                        </Array>
                    </mxGeometry>
                </mxCell>
                <mxCell id="35" value="是" style="text;html=1;strokeColor=none;fillColor=none;align=center;verticalAlign=middle;whiteSpace=wrap;rounded=0;fontFamily=Verdana;fontSize=11;fontColor=#EEEFF0;" vertex="1" parent="1">
                    <mxGeometry x="437.5" y="660" width="60" height="30" as="geometry"/>
                </mxCell>
                <mxCell id="39" value="" style="edgeStyle=elbowEdgeStyle;elbow=horizontal;endArrow=classic;html=1;fontFamily=Verdana;fontSize=11;fontColor=#EEEFF0;" edge="1" parent="1">
                    <mxGeometry width="50" height="50" relative="1" as="geometry">
                        <mxPoint x="256" y="690" as="sourcePoint"/>
                        <mxPoint x="256.25" y="580" as="targetPoint"/>
                        <Array as="points">
                            <mxPoint x="231" y="640"/>
                        </Array>
                    </mxGeometry>
                </mxCell>
                <mxCell id="40" value="否" style="text;html=1;strokeColor=none;fillColor=none;align=center;verticalAlign=middle;whiteSpace=wrap;rounded=0;fontFamily=Verdana;fontSize=11;fontColor=#EEEFF0;" vertex="1" parent="1">
                    <mxGeometry x="210.63" y="620" width="60" height="30" as="geometry"/>
                </mxCell>
                <mxCell id="45" value="是" style="text;html=1;strokeColor=none;fillColor=none;align=center;verticalAlign=middle;whiteSpace=wrap;rounded=0;fontFamily=Verdana;fontSize=11;fontColor=#EEEFF0;" vertex="1" parent="1">
                    <mxGeometry x="290.01" y="740" width="60" height="30" as="geometry"/>
                </mxCell>
                <mxCell id="46" value="" style="edgeStyle=none;html=1;exitX=0.5;exitY=1;exitDx=0;exitDy=0;entryX=0.5;entryY=0;entryDx=0;entryDy=0;fontFamily=Verdana;fontSize=11;fontColor=#EEEFF0;endArrow=none;" edge="1" parent="1" source="21" target="45">
                    <mxGeometry relative="1" as="geometry">
                        <mxPoint x="320" y="730" as="sourcePoint"/>
                        <mxPoint x="320" y="780" as="targetPoint"/>
                    </mxGeometry>
                </mxCell>
                <mxCell id="47" value="是" style="text;html=1;strokeColor=none;fillColor=none;align=center;verticalAlign=middle;whiteSpace=wrap;rounded=0;fontFamily=Verdana;fontSize=11;fontColor=#EEEFF0;" vertex="1" parent="1">
                    <mxGeometry x="300" y="870" width="60" height="30" as="geometry"/>
                </mxCell>
                <mxCell id="48" value="是" style="text;html=1;strokeColor=none;fillColor=none;align=center;verticalAlign=middle;whiteSpace=wrap;rounded=0;fontFamily=Verdana;fontSize=11;fontColor=#EEEFF0;" vertex="1" parent="1">
                    <mxGeometry x="300" y="420" width="60" height="30" as="geometry"/>
                </mxCell>
                <mxCell id="49" value="简历未通过邮件" style="whiteSpace=wrap;html=1;fontSize=11;fontFamily=Verdana;fontColor=#EEEFF0;" vertex="1" parent="1">
                    <mxGeometry x="70" y="362.5" width="101.25" height="35" as="geometry"/>
                </mxCell>
                <mxCell id="51" value="否" style="text;html=1;strokeColor=none;fillColor=none;align=center;verticalAlign=middle;whiteSpace=wrap;rounded=0;fontFamily=Verdana;fontSize=11;fontColor=#EEEFF0;" vertex="1" parent="1">
                    <mxGeometry x="190" y="350" width="60" height="30" as="geometry"/>
                </mxCell>
            </root>
        </mxGraphModel>
    </diagram>
</mxfile>